<svg width="20" height="20" viewBox="0 0 20 20" fill="none" xmlns="http://www.w3.org/2000/svg">
<path fill-rule="evenodd" clip-rule="evenodd" d="M13.0728 -0.000488281H6.93726C1.33299 -0.000488281 -0.000366211 1.33287 -0.000366211 6.92673V13.0623C-0.000366211 18.6665 1.32258 19.9999 6.92685 19.9999H13.0624C18.6667 19.9999 20 18.6769 20 13.0727V6.93714C20 1.33287 18.6771 -0.000488281 13.0728 -0.000488281ZM15.9375 6.35406C16.375 6.35406 16.4687 6.57282 16.375 6.88532C16.2185 7.6399 14.8102 9.67886 14.4839 10.1513C14.4408 10.2137 14.4166 10.2488 14.4166 10.25C14.2603 10.4896 14.1978 10.6146 14.4166 10.8958C14.4911 11.0076 14.6607 11.1737 14.8547 11.3636C15.0404 11.5455 15.2485 11.7492 15.4166 11.9479C16.0416 12.6563 16.5104 13.25 16.6458 13.6563C16.7708 14.0625 16.5625 14.2709 16.1458 14.2709H14.6874C14.3005 14.2709 14.1029 14.0509 13.6787 13.5786C13.4976 13.377 13.2751 13.1294 12.9791 12.8334C12.1145 12 11.7499 11.8958 11.5311 11.8958C11.229 11.8958 11.1457 11.9792 11.1457 12.3958V13.7084C11.1457 14.0625 11.0311 14.2709 10.104 14.2709C8.56231 14.2709 6.86436 13.3334 5.65601 11.6042C3.84347 9.07287 3.35388 7.15616 3.35388 6.77074C3.35388 6.55199 3.43722 6.35406 3.85389 6.35406H5.31225C5.68726 6.35406 5.82268 6.52074 5.96851 6.90616C6.67686 8.98953 7.88522 10.8021 8.37481 10.8021C8.56231 10.8021 8.64565 10.7187 8.64565 10.25V8.1041C8.60723 7.5022 8.39563 7.2388 8.23827 7.04291C8.13963 6.92013 8.0623 6.82387 8.0623 6.6874C8.0623 6.53115 8.20814 6.35406 8.43731 6.35406H10.729C11.0415 6.35406 11.1457 6.51032 11.1457 6.88532V9.78121C11.1457 10.0937 11.2811 10.1979 11.3749 10.1979C11.5624 10.1979 11.7082 10.0937 12.052 9.74996C13.1041 8.58327 13.8437 6.77074 13.8437 6.77074C13.9374 6.55199 14.1041 6.35406 14.4791 6.35406H15.9375Z" fill="#0F1113"/>
</svg>
